<svg id="Group_2" data-name="Group 2" xmlns="http://www.w3.org/2000/svg" xmlns:xlink="http://www.w3.org/1999/xlink" width="264.751" height="71.333" viewBox="0 0 264.751 71.333">
  <defs>
    <clipPath id="clip-path">
      <rect id="Rectangle_10" data-name="Rectangle 10" width="264.751" height="71.333" fill="#114352"/>
    </clipPath>
  </defs>
  <g id="Group_1" data-name="Group 1" clip-path="url(#clip-path)">
    <path id="Path_1" data-name="Path 1" d="M18.445,71.276c-4.47,0-8.941-.6-13.411-.571a2.468,2.468,0,0,1-2.394-1.35A24.509,24.509,0,0,0,.95,66.565a5.059,5.059,0,0,1-.839-4.144c2.091-12.7,4.18-25.4,6.186-38.111A47.727,47.727,0,0,1,8.82,16.161c1.486-4.288,3.088-8.537,4.542-12.836a3.4,3.4,0,0,1,3.481-2.7C19.882.536,22.915.234,25.95.01a3.464,3.464,0,0,1,2.044.471Q41.3,8.068,54.627,15.625a3.765,3.765,0,0,1,1.229,1.128Q61.675,24.918,67.5,33.077a2.358,2.358,0,0,1,.565,1.081c.13,3.3,1.038,6.584-.232,9.9-1.3,3.395-2.355,6.885-3.468,10.348a3.35,3.35,0,0,1-1.832,2.124q-14.271,7.1-28.51,14.257a4.67,4.67,0,0,1-2.166.494q-6.706-.017-13.413-.006c0-.194,0,.195,0,0m-6.5-27.427a5.853,5.853,0,0,0,7.527,6.471Q35.733,45.365,52,40.435A3.819,3.819,0,0,0,54.818,37.1a3.967,3.967,0,0,0-1.744-3.794Q45.48,27.283,37.908,21.231c-4.144-3.3-8.268-6.625-12.443-9.885a6.68,6.68,0,0,0-7.324-.815,6.651,6.651,0,0,0-4.07,5.79c-.729,9.094-1.41,18.191-2.128,27.527M31.47,67.406a6.285,6.285,0,0,0,5.157-2.2q7.08-7.877,14.185-15.732a3.539,3.539,0,0,0,.543-4.618,3.584,3.584,0,0,0-4.362-1.37q-12.228,3.7-24.45,7.415a5.191,5.191,0,0,0-3.91,4.224,5.137,5.137,0,0,0,2.111,5.246q3.7,2.863,7.388,5.734a5.7,5.7,0,0,0,3.339,1.3M56.025,33.328c1.106-.04,1.589-1.05,1.021-2.248q-3.518-7.423-7.067-14.83a6.483,6.483,0,0,0-1.987-2.557,24.047,24.047,0,0,0-6.985-3.808c-5.139-1.533-10.322-2.922-15.478-4.4-.911-.261-1.674-.188-2.119.7a1.616,1.616,0,0,0,.651,2.149q15.383,12.236,30.747,24.5a1.763,1.763,0,0,0,1.217.5M12.44,18.321c.13-1.013-.1-1.7-1.006-1.9-.946-.205-1.344.443-1.611,1.208A64.441,64.441,0,0,0,7.079,28.636Q4.3,45.844,1.516,63.05c-.236,1.453.207,2.4,1.321,2.716,1.141.325,1.991-.193,2.556-1.594q1.536-3.807,3.05-7.622a23.1,23.1,0,0,0,1.611-6.983c.3-4.227.658-8.451.981-12.677.478-6.246.946-12.493,1.405-18.569M63.076,40.061a4.368,4.368,0,0,0-3.165,1.531c-2.329,2.6-4.682,5.183-7.022,7.775Q47.982,54.8,43.081,60.243c-.925,1.028-1.01,1.958-.257,2.812a2.006,2.006,0,0,0,2.661.357q8.105-4.055,16.21-8.113a2.538,2.538,0,0,0,1.333-1.581c1.035-3.172,2.113-6.33,3.14-9.505a3.05,3.05,0,0,0-3.091-4.153m-46.305,29.6c0,.108,0-.108,0,0,2.516,0,5.033-.013,7.549.007a1.95,1.95,0,0,0,2.138-1.285,1.979,1.979,0,0,0-.818-2.365c-2.827-2.174-5.611-4.407-8.467-6.543A6.084,6.084,0,0,0,7.892,61.9c-.524,1.161-1,2.349-1.433,3.545a2.74,2.74,0,0,0,2.653,3.882c2.552.041,5.106.332,7.659.332M66.844,36.533a8.671,8.671,0,0,0-1.714-4.275q-5.117-7.127-10.205-14.273a5.632,5.632,0,0,0-.631-.788c-.436-.422-.908-.882-1.56-.395-.58.433-.392.977-.136,1.515q4.156,8.726,8.312,17.452a5.379,5.379,0,0,0,3.28,2.9,1.986,1.986,0,0,0,2.656-2.133" transform="translate(0 0)" fill="#099"/>
    <path id="Path_2" data-name="Path 2" d="M30.948,59.554c.718-9.335,1.4-18.433,2.128-27.527a6.652,6.652,0,0,1,4.071-5.79,6.679,6.679,0,0,1,7.323.815c4.175,3.26,8.3,6.585,12.443,9.885Q64.5,42.975,72.079,49.012a3.967,3.967,0,0,1,1.744,3.794A3.819,3.819,0,0,1,71.01,56.14Q54.747,61.1,38.475,66.025a5.853,5.853,0,0,1-7.527-6.471" transform="translate(-19.006 -15.704)" fill="#c5e8d8"/>
    <path id="Path_3" data-name="Path 3" d="M61.166,136.7a5.7,5.7,0,0,1-3.339-1.3q-3.7-2.863-7.387-5.734a5.136,5.136,0,0,1-2.111-5.246,5.191,5.191,0,0,1,3.91-4.224q12.224-3.71,24.45-7.415a3.584,3.584,0,0,1,4.362,1.371,3.538,3.538,0,0,1-.543,4.617Q73.42,126.64,66.323,134.5a6.284,6.284,0,0,1-5.158,2.2" transform="translate(-29.695 -69.298)" fill="#c5e8d8"/>
    <path id="Path_4" data-name="Path 4" d="M150.714,63.115a1.986,1.986,0,0,1-2.656,2.133,5.379,5.379,0,0,1-3.28-2.9q-4.166-8.721-8.312-17.452c-.256-.538-.443-1.082.136-1.515.652-.487,1.124-.028,1.56.395a5.63,5.63,0,0,1,.631.788Q143.9,51.7,149,58.84a8.671,8.671,0,0,1,1.714,4.275" transform="translate(-83.869 -26.581)" fill="#c5e8d8"/>
    <path id="Path_5" data-name="Path 5" d="M244.87,60.609h-4.792a6.91,6.91,0,0,0-6.5-3.672c-4.826,0-8.324,3.427-8.324,8.779s3.5,8.813,8.324,8.813a7.36,7.36,0,0,0,7.764-6.75H232.21V64.6H245.6v3.113a11.984,11.984,0,0,1-12.031,10.422,12.416,12.416,0,0,1,0-24.832c5.071,0,9.443,2.553,11.3,7.31" transform="translate(-136.164 -32.815)" fill="#114352"/>
    <path id="Path_6" data-name="Path 6" d="M298.945,85.989h-3.987V66.719h3.987v2.8a6.278,6.278,0,0,1,5.771-3.113v4.127H303.7c-2.938,0-4.757,1.224-4.757,5.316Z" transform="translate(-181.601 -40.884)" fill="#114352"/>
    <path id="Path_7" data-name="Path 7" d="M336.06,86.3c-5.526,0-9.617-3.917-9.617-9.968S330.36,66.4,336.06,66.4c5.491,0,9.373,3.812,9.373,9.478a12.3,12.3,0,0,1-.14,1.959H330.57a5.3,5.3,0,0,0,5.491,5.106,4.665,4.665,0,0,0,4.547-2.693h4.3c-1.085,3.358-4.127,6.051-8.849,6.051M330.6,74.623h10.667c-.07-2.973-2.413-4.861-5.386-4.861a5.249,5.249,0,0,0-5.281,4.861" transform="translate(-200.986 -40.884)" fill="#114352"/>
    <path id="Path_8" data-name="Path 8" d="M392.206,86.3c-5.526,0-9.617-3.917-9.617-9.968s3.917-9.933,9.617-9.933c5.491,0,9.373,3.812,9.373,9.478a12.3,12.3,0,0,1-.14,1.959H386.716a5.3,5.3,0,0,0,5.491,5.106,4.665,4.665,0,0,0,4.547-2.693h4.3c-1.085,3.358-4.127,6.051-8.849,6.051m-5.456-11.682h10.667c-.07-2.973-2.413-4.861-5.386-4.861a5.249,5.249,0,0,0-5.281,4.861" transform="translate(-235.555 -40.884)" fill="#114352"/>
    <path id="Path_9" data-name="Path 9" d="M455.868,75.217c0-3.532-1.923-5.351-4.827-5.351-2.937,0-4.861,1.819-4.861,5.351V85.989h-3.987V66.719h3.987v2.2a7.413,7.413,0,0,1,5.736-2.518c4.511,0,7.9,2.833,7.9,8.219V85.989h-3.952Z" transform="translate(-272.252 -40.884)" fill="#114352"/>
    <path id="Path_10" data-name="Path 10" d="M515.357,53.755h2.588L508.676,78.2h-2.8l-9.268-24.447h2.658l8.009,21.789Z" transform="translate(-305.756 -33.096)" fill="#114352"/>
    <path id="Path_11" data-name="Path 11" d="M560.219,50.715a1.784,1.784,0,1,1,3.567,0,1.784,1.784,0,1,1-3.567,0m.56,5.421h2.448v19.1h-2.448Z" transform="translate(-344.919 -30.126)" fill="#114352"/>
    <path id="Path_12" data-name="Path 12" d="M592.516,56.528c5.246,0,9.093,3.812,9.093,9.793s-3.882,9.863-9.093,9.863a8.024,8.024,0,0,1-7.589-4.477v4.2h-2.413V50.023h2.413V61.04a8.1,8.1,0,0,1,7.589-4.512m-.49,2.134c-3.882,0-7.1,2.938-7.1,7.694s3.217,7.694,7.1,7.694c4.022,0,7.1-2.9,7.1-7.729,0-4.862-3.078-7.659-7.1-7.659" transform="translate(-358.645 -30.798)" fill="#114352"/>
    <path id="Path_13" data-name="Path 13" d="M650.4,86.606c-5.421,0-9.373-3.777-9.373-9.828,0-6.085,3.882-9.828,9.373-9.828A8.585,8.585,0,0,1,659.42,75.8a16.73,16.73,0,0,1-.07,1.923H643.507c.21,4.477,3.323,6.82,6.89,6.82,3.253,0,5.456-1.714,6.155-4.267h2.588c-.875,3.6-3.952,6.33-8.744,6.33m-6.89-10.877h13.43c.105-4.442-3.112-6.68-6.645-6.68-3.462,0-6.5,2.238-6.785,6.68" transform="translate(-394.669 -41.22)" fill="#114352"/>
    <path id="Path_14" data-name="Path 14" d="M229.209,135.084a2.856,2.856,0,0,1,3.019-2.912,2.55,2.55,0,0,1,2.33,1.219l-.787.507a1.781,1.781,0,0,0-1.553-.82,2.012,2.012,0,0,0,0,4.023,1.781,1.781,0,0,0,1.553-.82l.787.5a2.558,2.558,0,0,1-2.33,1.229,2.864,2.864,0,0,1-3.019-2.922" transform="translate(-141.121 -81.376)" fill="#114352"/>
    <path id="Path_15" data-name="Path 15" d="M250.421,135.084a2.971,2.971,0,1,1,2.977,2.922,2.844,2.844,0,0,1-2.977-2.922m4.9,0A1.927,1.927,0,1,0,253.4,137.1a1.875,1.875,0,0,0,1.919-2.016" transform="translate(-154.181 -81.376)" fill="#114352"/>
    <path id="Path_16" data-name="Path 16" d="M280.452,134.652v3.29h-1.035v-3.171c0-1.121-.561-1.671-1.542-1.671a1.7,1.7,0,0,0-1.812,1.9v2.944h-1.035v-5.716h.992v.863a2.45,2.45,0,0,1,2.06-.917,2.214,2.214,0,0,1,2.372,2.48" transform="translate(-169.331 -81.376)" fill="#114352"/>
    <path id="Path_17" data-name="Path 17" d="M298.258,135.084a2.856,2.856,0,0,1,3.019-2.912,2.55,2.55,0,0,1,2.33,1.219l-.787.507a1.781,1.781,0,0,0-1.553-.82,2.012,2.012,0,0,0,0,4.023,1.781,1.781,0,0,0,1.553-.82l.787.5a2.558,2.558,0,0,1-2.33,1.229,2.864,2.864,0,0,1-3.019-2.922" transform="translate(-183.633 -81.376)" fill="#114352"/>
    <path id="Path_18" data-name="Path 18" d="M324.142,132.171v1a1.83,1.83,0,0,0-.237-.011,1.705,1.705,0,0,0-1.8,1.93v2.847h-1.035v-5.716h.992v.96a2.182,2.182,0,0,1,2.081-1.014" transform="translate(-197.678 -81.376)" fill="#114352"/>
    <path id="Path_19" data-name="Path 19" d="M341.948,135.429h-4.637a1.936,1.936,0,0,0,2.071,1.672,2.134,2.134,0,0,0,1.65-.69l.571.668a3.115,3.115,0,0,1-5.327-1.994,2.8,2.8,0,0,1,2.868-2.912,2.756,2.756,0,0,1,2.825,2.944c0,.086-.011.216-.022.312m-4.637-.744h3.667a1.845,1.845,0,0,0-3.667,0" transform="translate(-207.04 -81.376)" fill="#114352"/>
    <path id="Path_20" data-name="Path 20" d="M362.137,135.689a1.953,1.953,0,0,1-1.251.4,1.631,1.631,0,0,1-1.812-1.79V131.16h-.97v-.852h.97v-1.251h1.036v1.251h1.639v.852H360.11v3.1a.842.842,0,0,0,.9.96,1.3,1.3,0,0,0,.809-.27Z" transform="translate(-220.48 -79.459)" fill="#114352"/>
    <path id="Path_21" data-name="Path 21" d="M381.059,135.429h-4.637a1.936,1.936,0,0,0,2.071,1.672,2.134,2.134,0,0,0,1.65-.69l.571.668a3.115,3.115,0,0,1-5.327-1.994,2.8,2.8,0,0,1,2.869-2.912,2.756,2.756,0,0,1,2.826,2.944c0,.086-.011.216-.022.312m-4.637-.744h3.667a1.845,1.845,0,0,0-3.667,0" transform="translate(-231.12 -81.376)" fill="#114352"/>
    <path id="Path_22" data-name="Path 22" d="M416.855,126.363v8h-.992v-.906a2.414,2.414,0,0,1-2.038.97,2.917,2.917,0,0,1,0-5.834,2.433,2.433,0,0,1,2,.917v-3.149Zm-1.025,5.144a1.927,1.927,0,1,0-1.919,2.017,1.881,1.881,0,0,0,1.919-2.017" transform="translate(-253.007 -77.8)" fill="#114352"/>
    <path id="Path_23" data-name="Path 23" d="M440.68,134.49v3.451H439.7v-.755a2.121,2.121,0,0,1-1.876.82c-1.294,0-2.114-.69-2.114-1.683,0-.917.593-1.672,2.3-1.672h1.639v-.2c0-.873-.507-1.38-1.531-1.38a2.888,2.888,0,0,0-1.812.615l-.431-.777a3.806,3.806,0,0,1,2.362-.733c1.564,0,2.448.755,2.448,2.319m-1.035,1.7v-.8h-1.6c-1.025,0-1.316.4-1.316.884,0,.572.475.927,1.262.927a1.658,1.658,0,0,0,1.65-1.014" transform="translate(-268.26 -81.376)" fill="#114352"/>
    <path id="Path_24" data-name="Path 24" d="M460.953,135.689a1.953,1.953,0,0,1-1.251.4,1.631,1.631,0,0,1-1.812-1.79V131.16h-.97v-.852h.97v-1.251h1.036v1.251h1.639v.852h-1.639v3.1a.842.842,0,0,0,.9.96,1.3,1.3,0,0,0,.809-.27Z" transform="translate(-281.319 -79.459)" fill="#114352"/>
    <path id="Path_25" data-name="Path 25" d="M479.9,134.49v3.451h-.981v-.755a2.121,2.121,0,0,1-1.876.82c-1.294,0-2.114-.69-2.114-1.683,0-.917.593-1.672,2.3-1.672h1.639v-.2c0-.873-.507-1.38-1.531-1.38a2.888,2.888,0,0,0-1.812.615l-.431-.777a3.807,3.807,0,0,1,2.362-.733c1.564,0,2.448.755,2.448,2.319m-1.035,1.7v-.8h-1.6c-1.025,0-1.316.4-1.316.884,0,.572.475.927,1.262.927a1.658,1.658,0,0,0,1.65-1.014" transform="translate(-292.41 -81.376)" fill="#114352"/>
  </g>
</svg>
