<svg xmlns="http://www.w3.org/2000/svg" xmlns:xlink="http://www.w3.org/1999/xlink" width="32.497" height="56.111" viewBox="0 0 32.497 56.111">
  <defs>
    <clipPath id="clip-path">
      <rect id="Rectangle_2186" data-name="Rectangle 2186" width="32.497" height="56.111" fill="#fff"/>
    </clipPath>
  </defs>
  <g id="Group_8439" data-name="Group 8439" transform="translate(0 0)">
    <g id="Group_8438" data-name="Group 8438" transform="translate(0 0)" clip-path="url(#clip-path)">
      <path id="Path_23259" data-name="Path 23259" d="M88.059,72.8a1.094,1.094,0,0,0,1.094-1.094V68.844a1.094,1.094,0,0,0-2.188,0v2.865A1.094,1.094,0,0,0,88.059,72.8" transform="translate(-67.274 -52.41)" fill="#fff"/>
      <path id="Path_23260" data-name="Path 23260" d="M47.986,67.75a1.094,1.094,0,0,0-1.094,1.094v2.865a1.094,1.094,0,0,0,2.188,0V68.844a1.094,1.094,0,0,0-1.094-1.094" transform="translate(-36.274 -52.41)" fill="#fff"/>
      <path id="Path_23261" data-name="Path 23261" d="M88.059,116.825a1.094,1.094,0,0,0,1.094-1.094v-2.865a1.094,1.094,0,0,0-2.188,0v2.865a1.094,1.094,0,0,0,1.094,1.094" transform="translate(-67.274 -86.464)" fill="#fff"/>
      <path id="Path_23262" data-name="Path 23262" d="M47.986,111.772a1.094,1.094,0,0,0-1.094,1.094v2.865a1.094,1.094,0,0,0,2.188,0v-2.865a1.094,1.094,0,0,0-1.094-1.094" transform="translate(-36.274 -86.464)" fill="#fff"/>
      <path id="Path_23263" data-name="Path 23263" d="M88.059,160.848a1.094,1.094,0,0,0,1.094-1.094v-2.865a1.094,1.094,0,0,0-2.188,0v2.865a1.094,1.094,0,0,0,1.094,1.094" transform="translate(-67.274 -120.519)" fill="#fff"/>
      <path id="Path_23264" data-name="Path 23264" d="M47.986,155.794a1.094,1.094,0,0,0-1.094,1.094v2.865a1.094,1.094,0,0,0,2.188,0v-2.865a1.094,1.094,0,0,0-1.094-1.094" transform="translate(-36.274 -120.518)" fill="#fff"/>
      <path id="Path_23266" data-name="Path 23266" d="M29.889,70.638H41.678a1.094,1.094,0,0,0,1.094-1.094V26.3a1.094,1.094,0,0,0-.539-.942l-10.9-6.423a1.093,1.093,0,0,0-1.111,0l-10.9,6.423a1.094,1.094,0,0,0-.539.942V69.544a1.094,1.094,0,0,0,1.094,1.094H25a1.094,1.094,0,0,0,1.094-1.094V63.661H28.8v5.883a1.094,1.094,0,0,0,1.094,1.094M25,61.473A1.094,1.094,0,0,0,23.9,62.567V68.45H20.969V26.922l9.808-5.779,9.807,5.779V68.45h-9.6V62.567a1.094,1.094,0,0,0-1.094-1.094Z" transform="translate(-14.528 -14.527)" fill="#fff"/>
    </g>
  </g>
</svg>
