<svg xmlns="http://www.w3.org/2000/svg" width="37.596" height="27.417" viewBox="0 0 37.596 27.417">
  <g id="Group_8437" data-name="Group 8437" transform="translate(0)">
    <path id="Path_23256" data-name="Path 23256" d="M37.049,10.571,30.51,6.72V3.891a1.109,1.109,0,0,0-2.218,0V5.413L19.36.153a1.11,1.11,0,0,0-1.126,0L.546,10.571a1.109,1.109,0,1,0,1.126,1.911L18.8,2.4,35.923,12.483a1.109,1.109,0,1,0,1.126-1.911" transform="translate(0 0)" fill="#fff"/>
    <path id="Path_23257" data-name="Path 23257" d="M48.743,25.565,36.019,18.07a1.11,1.11,0,0,0-1.126,0L22.169,25.565a1.109,1.109,0,0,0-.546.956V40.111a1.109,1.109,0,0,0,1.109,1.109h5.976a1.109,1.109,0,0,0,1.109-1.109V33.076h3.493v7.036a1.109,1.109,0,0,0,1.109,1.109H48.18a1.109,1.109,0,0,0,1.109-1.109V26.52a1.109,1.109,0,0,0-.546-.956M47.071,39H35.529V31.967a1.109,1.109,0,0,0-1.109-1.109H28.709A1.109,1.109,0,0,0,27.6,31.967V39H23.841V27.154l11.615-6.841,11.615,6.841Z" transform="translate(-16.658 -13.804)" fill="#fff"/>
    <path id="Path_23258" data-name="Path 23258" d="M106.7,79.845a1.109,1.109,0,0,0,1.109-1.109V75.392a1.109,1.109,0,0,0-2.219,0v3.344a1.109,1.109,0,0,0,1.109,1.109" transform="translate(-81.352 -57.229)" fill="#fff"/>
  </g>
</svg>
