<svg xmlns="http://www.w3.org/2000/svg" width="43.086" height="52.127" viewBox="0 0 43.086 52.127">
  <g id="Group_8547" data-name="Group 8547" transform="translate(-1622.416 -2306.73)">
    <path id="Path_23267" data-name="Path 23267" d="M26.6,92.137a.9.9,0,0,1-.9-.9V88.87a.9.9,0,0,1,1.806,0v2.364a.9.9,0,0,1-.9.9" transform="translate(1602.473 2236.742)" fill="#fff"/>
    <path id="Path_23269" data-name="Path 23269" d="M26.6,132.381a.9.9,0,0,1-.9-.9v-2.364a.9.9,0,1,1,1.806,0v2.364a.9.9,0,0,1-.9.9" transform="translate(1602.473 2204.725)" fill="#fff"/>
    <path id="Path_23271" data-name="Path 23271" d="M26.6,172.624a.9.9,0,0,1-.9-.9v-2.364a.9.9,0,1,1,1.806,0v2.364a.9.9,0,0,1-.9.9" transform="translate(1602.473 2172.707)" fill="#fff"/>
    <path id="Subtraction_1" data-name="Subtraction 1" d="M-4326.085,17222.271h-5.654a.9.9,0,0,1-.9-.9v-1.107h.83v-5.553h.073a.9.9,0,0,1,.9.9v4.854h3.851v-7.066c.681-.068,1.15-.107,1.154-.107a1.092,1.092,0,0,1,.648.213v7.865A.9.9,0,0,1-4326.085,17222.271Zm-9.69,0h-9.323a.9.9,0,0,1-.9-.9v-35.689a.912.912,0,0,1,.441-.777l9-5.3a.892.892,0,0,1,.457-.127.908.908,0,0,1,.459.127l.9.475v2.059l-1.357-.709-8.1,4.771v34.266h7.517v-4.854a.9.9,0,0,1,.9-.9h1.033v1.807h-.134v4.854A.9.9,0,0,1-4335.776,17222.271Z" transform="translate(5968.914 -14863.914)" fill="#fff" stroke="rgba(0,0,0,0)" stroke-miterlimit="10" stroke-width="1"/>
    <path id="Subtraction_2" data-name="Subtraction 2" d="M9.9,42.794a.9.9,0,0,1-.458-.125l-9-5.3A.909.909,0,0,1,0,36.59V.9A.9.9,0,0,1,.9,0h9.32a.9.9,0,0,1,.9.9V5.757h.133V7.563H10.22a.9.9,0,0,1-.9-.9V1.805H1.8V36.075L9.9,40.844l1.36-.712v2.06l-.9.477A.907.907,0,0,1,9.9,42.794ZM15.161,2.108h0c-.647-.034-.975-.118-.975-.251V2.01h-.83V.9a.9.9,0,0,1,.9-.9h5.656a.9.9,0,0,1,.9.9v.959l-.059.006c-.254.021-.929.078-1.746.132V1.805h-3.85v.3Z" transform="translate(1665 2358.355) rotate(180)" fill="#fff" stroke="rgba(0,0,0,0)" stroke-miterlimit="10" stroke-width="1"/>
    <path id="Path_23274" data-name="Path 23274" d="M172.276,92.137a.9.9,0,0,0,.9-.9V88.87a.9.9,0,1,0-1.806,0v2.364a.9.9,0,0,0,.9.9" transform="translate(1486.569 2236.742)" fill="#fff"/>
    <path id="Path_23276" data-name="Path 23276" d="M172.276,132.381a.9.9,0,0,0,.9-.9v-2.364a.9.9,0,1,0-1.806,0v2.364a.9.9,0,0,0,.9.9" transform="translate(1486.569 2204.725)" fill="#fff"/>
    <path id="Path_23278" data-name="Path 23278" d="M172.276,172.624a.9.9,0,0,0,.9-.9v-2.364a.9.9,0,1,0-1.806,0v2.364a.9.9,0,0,0,.9.9" transform="translate(1486.569 2172.707)" fill="#fff"/>
    <path id="Path_23282" data-name="Path 23282" d="M120.878,59.033a1.089,1.089,0,0,0,1.089-1.089V55.092a1.089,1.089,0,0,0-2.178,0v2.852a1.089,1.089,0,0,0,1.089,1.089" transform="translate(1527.61 2263.766)" fill="#fff"/>
    <path id="Path_23283" data-name="Path 23283" d="M76.685,54A1.089,1.089,0,0,0,75.6,55.093v2.852a1.089,1.089,0,0,0,2.178,0V55.093A1.089,1.089,0,0,0,76.685,54" transform="translate(1562.771 2263.766)" fill="#fff"/>
    <path id="Path_23284" data-name="Path 23284" d="M120.878,107.581a1.089,1.089,0,0,0,1.089-1.089V103.64a1.089,1.089,0,0,0-2.178,0v2.852a1.089,1.089,0,0,0,1.089,1.089" transform="translate(1527.61 2225.141)" fill="#fff"/>
    <path id="Path_23285" data-name="Path 23285" d="M76.685,102.551A1.089,1.089,0,0,0,75.6,103.64v2.852a1.089,1.089,0,0,0,2.178,0V103.64a1.089,1.089,0,0,0-1.089-1.089" transform="translate(1562.771 2225.141)" fill="#fff"/>
    <path id="Path_23286" data-name="Path 23286" d="M120.878,156.128a1.089,1.089,0,0,0,1.089-1.089v-2.852a1.089,1.089,0,1,0-2.178,0v2.852a1.089,1.089,0,0,0,1.089,1.089" transform="translate(1527.61 2186.516)" fill="#fff"/>
    <path id="Path_23287" data-name="Path 23287" d="M76.685,151.1a1.089,1.089,0,0,0-1.089,1.089v2.852a1.089,1.089,0,0,0,2.178,0v-2.852a1.089,1.089,0,0,0-1.089-1.089" transform="translate(1562.771 2186.516)" fill="#fff"/>
    <path id="Path_23288" data-name="Path 23288" d="M55.653,51.624H67.388a1.089,1.089,0,0,0,1.089-1.089V7.483a1.089,1.089,0,0,0-.536-.938L57.089.151a1.089,1.089,0,0,0-1.106,0L45.131,6.545a1.089,1.089,0,0,0-.536.938V50.535a1.089,1.089,0,0,0,1.089,1.089h5.1a1.089,1.089,0,0,0,1.089-1.089V44.678h2.694v5.857a1.089,1.089,0,0,0,1.089,1.089M50.781,42.5a1.089,1.089,0,0,0-1.089,1.089v5.857H46.773V8.106l9.763-5.753L66.3,8.106v41.34H56.742V43.589A1.089,1.089,0,0,0,55.653,42.5Z" transform="translate(1587.436 2306.73)" fill="#fff"/>
  </g>
</svg>
