<svg xmlns="http://www.w3.org/2000/svg" xmlns:xlink="http://www.w3.org/1999/xlink" width="43.281" height="43.281" viewBox="0 0 43.281 43.281">
  <defs>
    <linearGradient id="linear-gradient" x1="1" x2="0" y2="1.286" gradientUnits="objectBoundingBox">
      <stop offset="0" stop-color="#c5e8d8"/>
      <stop offset="1" stop-color="#099"/>
    </linearGradient>
  </defs>
  <path id="Path_23222" data-name="Path 23222" d="M10.031,43.281H33.25V41.262H10.031ZM0,33.25H2.019V10.031H0Zm41.261,0h2.02V10.031h-2.02ZM20.927,4,16.159,8.787l1.428,1.421L20.63,7.152V20.631H7.152l3.055-3.043-1.42-1.428L4,20.927l-.717.714L4,22.355l4.786,4.767,1.42-1.428L7.152,22.651H20.63V36.129l-3.042-3.055-1.428,1.421,4.767,4.785L21.64,40l.714-.717,4.767-4.785-1.428-1.421L22.65,36.129V22.651H36.129l-3.055,3.043,1.42,1.428,4.786-4.767L40,21.641l-.716-.714-4.786-4.767-1.42,1.428,3.055,3.043H22.65V7.152l3.043,3.055,1.428-1.421L22.355,4l-.714-.717ZM10.031,2.02H33.25V0H10.031Z" fill="url(#linear-gradient)"/>
</svg>
