<svg xmlns="http://www.w3.org/2000/svg" xmlns:xlink="http://www.w3.org/1999/xlink" width="621.975" height="227.016" viewBox="0 0 621.975 227.016">
  <defs>
    <clipPath id="clip-path">
      <rect id="Rectangle_13" data-name="Rectangle 13" width="218.006" height="227.016" fill="none"/>
    </clipPath>
  </defs>
  <g id="Group_8543" data-name="Group 8543" transform="translate(-649.013 -330.537)">
    <g id="Group_8542" data-name="Group 8542" transform="translate(853.36 330.537)" opacity="0.15">
      <g id="Group_8" data-name="Group 8" clip-path="url(#clip-path)">
        <path id="Path_55" data-name="Path 55" d="M58.7,226.836c-14.228,0-28.454-1.918-42.68-1.818a7.857,7.857,0,0,1-7.617-4.3,77.953,77.953,0,0,0-5.383-8.882c-3.05-4.058-3.468-8.34-2.67-13.189,6.656-40.414,13.3-80.83,19.688-121.288,1.437-9.1,5.069-17.384,8.03-25.93C32.8,37.786,37.9,24.265,42.525,10.583c1.884-5.574,4.921-8.417,11.077-8.6C63.274,1.708,72.927.748,82.585.033a11.015,11.015,0,0,1,6.5,1.5q42.352,24.145,84.759,48.2a11.966,11.966,0,0,1,3.91,3.59q18.52,25.984,37.063,51.951c.751,1.055,1.751,2.267,1.8,3.439.415,10.5,3.3,20.953-.738,31.506-4.138,10.8-7.5,21.909-11.037,32.933a10.663,10.663,0,0,1-5.829,6.762q-45.416,22.585-90.731,45.373a14.848,14.848,0,0,1-6.894,1.572c-14.229-.035-28.458-.017-42.686-.017,0-.62,0,.62,0,0m-20.7-87.287c-2.287,14.338,11.519,24.384,23.955,20.6q51.758-15.77,103.541-31.46a12.151,12.151,0,0,0,8.953-10.611c.7-5.1-1.617-8.951-5.55-12.073q-24.166-19.173-48.264-38.43c-13.188-10.5-26.313-21.084-39.6-31.458-7.129-5.565-15.13-6.372-23.308-2.592-7.765,3.589-12.267,9.863-12.954,18.428-2.318,28.94-4.489,57.892-6.774,87.6m62.147,74.968c7.238.144,12.258-2.385,16.414-7.008q22.531-25.068,45.142-50.067c4.293-4.766,4.858-9.876,1.729-14.695-2.957-4.553-7.9-6.17-13.881-4.362q-38.916,11.764-77.811,23.6c-6.771,2.054-11.185,6.464-12.444,13.444-1.229,6.819,1.216,12.432,6.717,16.695q11.764,9.112,23.51,18.247a18.138,18.138,0,0,0,10.625,4.149M178.3,106.065c3.52-.128,5.056-3.341,3.25-7.153q-11.194-23.622-22.491-47.2a20.626,20.626,0,0,0-6.325-8.137c-6.9-4.943-14.041-9.679-22.229-12.12-16.356-4.878-32.848-9.3-49.258-14-2.9-.831-5.329-.6-6.746,2.221-1.389,2.764-.291,4.96,2.071,6.838q48.955,38.942,97.853,77.954a5.6,5.6,0,0,0,3.873,1.594M39.591,58.308c.413-3.222-.316-5.414-3.2-6.041-3.01-.654-4.278,1.411-5.127,3.842A205.074,205.074,0,0,0,22.53,91.133Q13.7,145.9,4.826,200.656c-.75,4.623.658,7.636,4.2,8.645,3.632,1.035,6.336-.615,8.134-5.072,3.259-8.077,6.475-16.171,9.707-24.259a73.464,73.464,0,0,0,5.125-22.223c.955-13.454,2.1-26.9,3.124-40.344,1.52-19.877,3.01-39.756,4.472-59.095m161.147,69.183a13.907,13.907,0,0,0-10.072,4.874c-7.413,8.28-14.9,16.495-22.348,24.745q-15.616,17.3-31.213,34.612c-2.946,3.274-3.216,6.232-.818,8.949,2.466,2.794,5.4,2.674,8.467,1.137q25.8-12.908,51.587-25.819a8.079,8.079,0,0,0,4.242-5.032c3.293-10.1,6.724-20.147,9.994-30.25,2.291-7.081-2.119-13.1-9.838-13.216M53.374,221.685c0,.343,0-.343,0,0,8.008,0,16.017-.043,24.024.021,3.176.026,5.725-.913,6.8-4.089,1.047-3.083-.031-5.547-2.6-7.526-9-6.92-17.857-14.026-26.947-20.822a19.362,19.362,0,0,0-29.534,7.721c-1.667,3.7-3.172,7.474-4.562,11.283-2.377,6.515,1.5,12.243,8.444,12.355,8.122.13,16.25,1.058,24.374,1.058M212.731,116.267a27.592,27.592,0,0,0-5.456-13.607Q190.991,79.979,174.8,57.236a17.935,17.935,0,0,0-2.009-2.508c-1.387-1.345-2.89-2.808-4.965-1.256-1.843,1.377-1.249,3.109-.434,4.821q13.227,27.77,26.451,55.542a17.12,17.12,0,0,0,10.438,9.219c4.551,1.491,8.483-1.474,8.454-6.787" transform="translate(0 0)" fill="#099"/>
        <path id="Path_56" data-name="Path 56" d="M53.568,152.409c2.285-29.709,4.455-58.661,6.774-87.6.686-8.566,5.188-14.84,12.954-18.428C81.473,42.6,89.474,43.406,96.6,48.971c13.287,10.375,26.412,20.956,39.6,31.458q24.131,19.217,48.264,38.43c3.934,3.121,6.254,6.977,5.55,12.073a12.15,12.15,0,0,1-8.953,10.61Q129.307,157.321,77.523,173c-12.436,3.789-26.242-6.258-23.955-20.6" transform="translate(-15.562 -12.859)" fill="#c5e8d8"/>
        <path id="Path_57" data-name="Path 57" d="M124.468,271.26a18.136,18.136,0,0,1-10.625-4.148Q102.079,258,90.333,248.864c-5.5-4.261-7.946-9.875-6.717-16.695,1.258-6.979,5.672-11.389,12.443-13.444q38.9-11.806,77.811-23.6c5.982-1.809,10.924-.192,13.881,4.362,3.129,4.818,2.565,9.928-1.729,14.695q-22.559,25.044-45.142,50.066c-4.155,4.623-9.175,7.151-16.414,7.008" transform="translate(-24.315 -56.742)" fill="#c5e8d8"/>
        <path id="Path_58" data-name="Path 58" d="M281.4,138.032c.029,5.312-3.9,8.278-8.454,6.787a17.12,17.12,0,0,1-10.438-9.219q-13.256-27.756-26.451-55.542c-.815-1.712-1.409-3.444.434-4.821,2.076-1.551,3.578-.089,4.965,1.256A17.934,17.934,0,0,1,243.47,79q16.242,22.711,32.479,45.424a27.593,27.593,0,0,1,5.456,13.607" transform="translate(-68.674 -21.765)" fill="#c5e8d8"/>
      </g>
    </g>
    <path id="Path_23305" data-name="Path 23305" d="M-341.691-114.235l74.6-148.235h54.985l-76.207,148.235Zm0,28.3v-28.3l16.721-14.47h165.277v42.766Zm107.076,50.483V-175.973H-185.1V-35.455Zm332.9-78.78,74.6-148.235h54.985L151.663-114.235Zm0,28.3v-28.3l16.721-14.47H280.284v42.766ZM205.362-35.455V-175.973h49.519V-35.455Z" transform="translate(990.704 593.008)" fill="#114352"/>
  </g>
</svg>
